<mxfile host="app.diagrams.net" modified="2024-02-29T11:53:47.899Z" agent="Mozilla/5.0 (Windows NT 10.0; Win64; x64; rv:122.0) Gecko/20100101 Firefox/122.0" version="23.1.8" etag="I-rGMcBXmb66P_vLRTNU" type="github">
  <diagram name="Page-1" id="h_vBngos6AUxlnkizOd4">
    <mxGraphModel>
      <root>
        <mxCell id="0" />
        <mxCell id="1" parent="0" />
      </root>
    </mxGraphModel>
  </diagram>
</mxfile>
